HIERARCHY
ROOT Hips
{
	OFFSET	0.000000	0.000000	0.000000
	CHANNELS 6 Xposition Yposition Zposition Xrotation Yrotation Zrotation
	JOINT LowerBack
	{
		OFFSET	0.000000	9.179819	-5.642168
		CHANNELS 3 Xrotation Yrotation Zrotation
		JOINT Spine
		{
			OFFSET	0.000000	11.942610	0.000001
			CHANNELS 3 Xrotation Yrotation Zrotation
			JOINT Spine1
			{
				OFFSET	0.000000	16.828240	0.000001
				CHANNELS 3 Xrotation Yrotation Zrotation
				JOINT Neck
				{
					OFFSET	0.000000	28.228000	0.658470
					CHANNELS 3 Xrotation Yrotation Zrotation
					JOINT Head
					{
						OFFSET	0.000000	9.771228	0.000001
						CHANNELS 3 Xrotation Yrotation Zrotation
						End Site
						{
							OFFSET	0.000000	21.713840	0.000001
						}
					}
				}
				JOINT RightShoulder
				{
					OFFSET	-3.474216	26.056600	0.000001
					CHANNELS 3 Xrotation Yrotation Zrotation
					JOINT RightArm
					{
						OFFSET	-17.153940	-4.342759	1.085692
						CHANNELS 3 Xrotation Yrotation Zrotation
						JOINT RightForeArm
						{
							OFFSET	-34.348130	-2.495277	-1.502431
							CHANNELS 3 Xrotation Yrotation Zrotation
							JOINT RightHand
							{
								OFFSET	-29.009460	0.869954	1.071342
								CHANNELS 3 Xrotation Yrotation Zrotation
								End Site
								{
									OFFSET	-17.383970	-0.564861	0.641547
								}
							}
						}
					}
				}
				JOINT LeftShoulder
				{
					OFFSET	3.474216	26.056600	0.000001
					CHANNELS 3 Xrotation Yrotation Zrotation
					JOINT LeftArm
					{
						OFFSET	17.153940	-4.342759	1.085692
						CHANNELS 3 Xrotation Yrotation Zrotation
						JOINT LeftForeArm
						{
							OFFSET	34.348130	-2.495325	-1.502430
							CHANNELS 3 Xrotation Yrotation Zrotation
							JOINT LeftHand
							{
								OFFSET	29.009450	0.869918	1.071342
								CHANNELS 3 Xrotation Yrotation Zrotation
								End Site
								{
									OFFSET	17.383970	-0.564885	0.641547
								}
							}
						}
					}
				}
			}
		}
	}
	JOINT RightUpLeg
	{
		OFFSET	-9.771230	0.492895	0.000000
		CHANNELS 3 Xrotation Yrotation Zrotation
		JOINT RightLeg
		{
			OFFSET	-0.542844	-47.444740	-0.000003
			CHANNELS 3 Xrotation Yrotation Zrotation
			JOINT RightFoot
			{
				OFFSET	-0.000003	-49.198160	-0.445136
				CHANNELS 3 Xrotation Yrotation Zrotation
				JOINT RightToeBase
				{
					OFFSET	-0.000001	-4.326484	13.414860
					CHANNELS 3 Xrotation Yrotation Zrotation
					End Site
					{
						OFFSET	0.000000	0.000001	7.449727
					}
				}
			}
		}
	}
	JOINT LeftUpLeg
	{
		OFFSET	9.771230	0.492895	0.000000
		CHANNELS 3 Xrotation Yrotation Zrotation
		JOINT LeftLeg
		{
			OFFSET	0.542844	-47.444730	-0.000003
			CHANNELS 3 Xrotation Yrotation Zrotation
			JOINT LeftFoot
			{
				OFFSET	0.000003	-49.198160	-0.445142
				CHANNELS 3 Xrotation Yrotation Zrotation
				JOINT LeftToeBase
				{
					OFFSET	0.000001	-4.326486	13.414860
					CHANNELS 3 Xrotation Yrotation Zrotation
					End Site
					{
						OFFSET	0.000000	0.000000	7.449727
					}
				}
			}
		}
	}
}
MOTION
Frames:	12
Frame Time: 0.0333333000
	0.000000	102.449900	0.000000	0.000000	0.000000	0.000000	0.000000	0.000000	0.000000	0.000000	0.000000	0.000000	0.000000	0.000000	0.000000	0.000000	0.000000	0.000000	0.000000	0.000000	0.000000	0.000000	0.000000	0.000000	0.000000	0.000000	0.000000	0.000000	0.000000	0.000000	0.000000	0.000000	0.000000	0.000000	0.000000	0.000000	0.000000	0.000000	0.000000	0.000000	0.000000	0.000000	0.000000	0.000000	0.000000	0.000000	0.000000	0.000000	0.000000	0.000000	0.000000	0.000000	0.000000	0.000000	0.000000	0.000000	0.000000	0.000000	0.000000	0.000000	0.000000	0.000000	0.000000	0.000000	0.000000	0.000000	0.000000	0.000000	0.000000
	-33.266540	103.477800	-80.639690	1.959196	10.950830	-0.972999	0.000010	-0.000004	0.000002	-1.850576	0.175186	-0.073437	-6.164478	0.593614	-0.222614	0.000000	0.000000	0.000000	0.000000	0.000000	0.000000	-0.437990	0.043664	-5.914008	-43.913700	-4.903987	14.127940	0.303904	10.018870	-0.033533	0.000000	0.000002	0.000001	-0.471452	-0.048901	6.369085	-29.905710	-5.427738	-16.310200	0.331047	-10.891840	0.039057	0.000002	0.000001	0.000000	-2.680964	-5.013847	-3.823775	3.508792	0.031418	-0.004586	-0.602096	-0.063931	-0.013867	0.000005	0.000002	0.000000	0.989292	0.095298	3.497223	0.265098	-0.002379	0.000307	0.055645	-0.319164	-0.102663	-0.057597	0.000003	0.000000
	-33.313840	103.480000	-80.647780	2.004227	11.261230	-1.111851	0.000007	-0.000004	0.000003	-1.857231	0.123523	-0.043166	-6.186984	0.416694	-0.124911	0.000000	-0.000001	0.000000	0.000000	0.000000	0.000000	-0.478632	0.050040	-6.466554	-43.615890	-5.899014	14.646980	0.327077	10.764040	-0.038222	-0.000003	0.000001	-0.000002	-0.474990	-0.049469	6.417315	-30.327080	-5.265346	-16.610060	0.338521	-11.130980	0.040646	0.000000	0.000000	0.000000	-2.608640	-5.103077	-3.678308	3.404475	0.030488	-0.004410	-0.522171	-0.244492	-0.071133	0.000005	-0.000002	0.000001	0.842387	0.068874	3.663960	0.345461	-0.003103	0.000395	0.038665	-0.586248	-0.187199	-0.086503	0.000001	-0.000001
	-33.359310	103.479600	-80.600970	1.923383	11.527670	-1.239122	0.000009	-0.000002	0.000000	-1.858019	0.081670	-0.011487	-6.188474	0.274123	-0.021205	0.000000	0.000000	0.000000	0.000000	0.000000	0.000000	-0.511833	0.055562	-6.918530	-43.347440	-6.768157	15.195810	0.344622	11.325530	-0.041969	0.000000	-0.000001	0.000001	-0.481992	-0.050620	6.512496	-30.658390	-5.281874	-16.993060	0.335477	-11.033380	0.039994	-0.000004	0.000000	0.000000	-2.307006	-5.204096	-3.507117	3.147982	0.028197	-0.004019	-0.413607	-0.344031	-0.107282	0.000005	0.000000	0.000000	0.924141	0.043934	3.833819	0.295710	-0.002648	0.000342	-0.048050	-0.757807	-0.250424	-0.057597	0.000000	0.000000
	-33.373930	103.470800	-80.552330	1.819059	11.756710	-1.325031	0.000007	-0.000003	0.000002	-1.852225	0.054384	0.020454	-6.168390	0.182398	0.081760	0.000000	0.000000	0.000000	0.000000	0.000000	0.000000	-0.535003	0.059568	-7.234338	-43.390740	-7.186380	15.419300	0.341951	11.240310	-0.041386	0.000000	0.000000	-0.000001	-0.493313	-0.052452	6.666611	-30.839570	-5.270125	-17.462250	0.335374	-11.030130	0.039974	0.000002	0.000000	-0.000001	-1.990761	-5.280633	-3.386826	2.895982	0.025957	-0.003638	-0.386580	-0.464316	-0.151416	0.000005	-0.000001	0.000001	1.111355	0.023970	3.950300	0.103010	-0.000928	0.000137	-0.120506	-0.928499	-0.311376	-0.014403	0.000002	0.000000
	-33.424130	103.452900	-80.564910	1.809043	11.798980	-1.427087	0.000012	-0.000002	0.000001	-1.838593	0.047078	0.050551	-6.127050	0.154404	0.174108	0.000000	0.000000	0.000000	0.000000	0.000000	0.000000	-0.546494	0.061601	-7.391070	-43.838010	-6.964649	15.362940	0.312636	10.300270	-0.035264	0.000000	-0.000001	-0.000001	-0.509607	-0.055189	6.888519	-30.837790	-5.059712	-17.809140	0.341425	-11.223850	0.041274	0.000003	0.000000	0.000000	-1.976409	-5.260316	-3.251331	2.914823	0.026125	-0.003666	-0.440240	-0.662955	-0.219002	0.000005	-0.000002	0.000000	1.199658	0.005122	4.095046	-0.102927	0.000932	-0.000082	-0.163295	-1.077962	-0.353192	-0.000005	0.000000	0.000000
	-33.528000	103.434300	-80.629690	1.865670	11.673920	-1.553559	0.000011	-0.000003	0.000001	-1.818177	0.062199	0.073451	-6.065774	0.197561	0.243804	0.000000	0.000000	0.000000	0.000000	0.000000	0.000000	-0.546045	0.061525	-7.384910	-44.371540	-6.604136	15.262990	0.283512	9.359848	-0.029648	0.000000	0.000000	0.000000	-0.530990	-0.058868	7.179900	-30.755070	-4.898147	-18.064010	0.338832	-11.140990	0.040715	0.000001	0.000000	0.000000	-2.205602	-5.136192	-3.088592	3.171938	0.028428	-0.004052	-0.436613	-0.748196	-0.247062	-0.000104	0.000002	0.000000	1.096244	-0.019963	4.272782	-0.063779	0.000585	-0.000033	-0.276382	-1.064467	-0.340676	-0.000101	0.000004	0.000000
	-33.591420	103.422100	-80.711040	1.877568	11.424780	-1.575795	0.000008	-0.000001	0.000001	-1.793968	0.097751	0.082610	-5.986563	0.312767	0.278165	-0.000001	0.000001	0.000000	-0.000001	0.000001	0.000000	-0.534779	0.059537	-7.231318	-44.902700	-6.202987	15.187370	0.258541	8.549716	-0.025202	0.000000	0.000000	0.000001	-0.556872	-0.063480	7.532909	-30.518380	-4.757492	-18.443350	0.335136	-11.022670	0.039921	0.000005	0.000001	0.000000	-2.430889	-5.000256	-3.077080	3.436897	0.030773	-0.004464	-0.292180	-0.483261	-0.156977	0.000005	-0.000002	0.000001	0.986660	-0.055032	4.301536	0.114457	-0.001029	0.000134	-0.378141	-0.728692	-0.234396	-0.000196	-0.000001	0.000000
	-33.635360	103.413100	-80.815110	1.860878	10.977720	-1.505050	0.000011	-0.000003	0.000000	-1.766374	0.151490	0.075471	-5.891495	0.494262	0.265820	0.000001	-0.000001	0.000000	0.000000	-0.000001	0.000000	-0.514604	0.056032	-6.956273	-45.536750	-5.546789	15.182830	0.227815	7.547890	-0.020214	0.000000	0.000000	0.000000	-0.586114	-0.068885	7.932351	-29.957950	-4.340997	-18.870190	0.352826	-11.587930	0.043780	0.000000	0.000001	0.000000	-2.679584	-4.927919	-3.194291	3.652375	0.032702	-0.004813	-0.001707	0.014047	0.001950	0.000005	-0.000001	0.000000	1.048723	-0.089478	4.236122	-0.008417	0.000078	0.000019	-0.229103	-0.308954	-0.105213	-0.000100	0.000003	0.000000
	-33.718950	103.414200	-80.916750	1.875629	10.573350	-1.467669	0.000009	-0.000002	0.000002	-1.734143	0.221133	0.052038	-5.782067	0.730270	0.198765	-0.000001	0.000001	0.000000	0.000000	0.000000	0.000000	-0.487782	0.051529	-6.591020	-46.016610	-5.337547	15.055260	0.228508	7.570394	-0.020321	0.000000	0.000000	0.000000	-0.617360	-0.074889	8.359623	-29.255330	-4.086462	-19.349800	0.373182	-12.235330	0.048425	-0.000001	-0.000001	0.000000	-2.929713	-4.939254	-3.245028	3.800921	0.034030	-0.005038	0.234152	0.315050	0.086918	-0.000200	0.000003	0.000000	1.086062	-0.108880	4.237029	-0.205388	0.001841	-0.000174	0.043867	-0.138952	-0.050077	-0.000005	0.000003	0.000000
	-33.758330	103.430400	-80.969660	1.884735	10.373970	-1.398973	0.000009	-0.000001	0.000002	-1.697327	0.301867	0.011859	-5.658726	1.004008	0.074274	0.000000	0.000000	0.000000	0.000000	0.000000	0.000000	-0.456795	0.046563	-6.169494	-46.128410	-5.789209	14.608460	0.274410	9.065270	-0.027985	0.000000	-0.000001	-0.000002	-0.649317	-0.081286	8.797291	-28.564040	-4.286191	-20.011840	0.373820	-12.255380	0.048573	-0.000004	-0.000001	0.000000	-3.064167	-5.070539	-3.310749	3.902256	0.034919	-0.005205	0.085212	0.477399	0.134971	-0.000200	-0.000004	-0.000001	0.970132	-0.115040	4.158202	-0.023140	0.000209	-0.000006	0.127262	0.005049	0.002597	-0.000101	0.000002	0.000000
	-33.785220	103.442700	-81.030640	1.910265	10.111160	-1.280606	0.000010	-0.000003	0.000003	-1.656262	0.387206	-0.044247	-5.520728	1.294623	-0.103809	0.000000	0.000000	0.000000	0.000000	0.000000	0.000000	-0.423901	0.041540	-5.722643	-45.903690	-6.177985	14.138850	0.326835	10.756340	-0.038171	0.000000	0.000000	0.000000	-0.681047	-0.087882	9.232534	-27.811300	-4.475927	-20.589250	0.371932	-12.195440	0.048132	-0.000001	0.000001	0.000001	-3.289493	-5.370630	-3.433532	4.127635	0.036929	-0.005573	-0.321973	0.882429	0.281061	-0.000200	0.000000	0.000001	0.753252	-0.128295	4.006454	0.416671	-0.003753	0.000449	0.001232	0.336608	0.115268	-0.000306	0.000001	0.000000
